{
  "accessors": [
    {
      "bufferView": 2,
      "componentType": 5126,
      "count": 3671,
      "max": [
        0.7390509843826294,
        0.5026429891586304,
        1.3321950435638428
      ],
      "min": [
        -0.7270230054855347,
        -0.7958430051803589,
        -0.667805016040802
      ],
      "type": "VEC3"
    },
    {
      "bufferView": 2,
      "byteOffset": 44052,
      "componentType": 5126,
      "count": 3671,
      "max": [
        0.9997057318687439,
        0.9999523162841797,
        0.9981658458709717
      ],
      "min": [
        -0.9996635317802429,
        -0.9966666102409363,
        -0.9998484253883362
      ],
      "type": "VEC3"
    },
    {
      "bufferView": 1,
      "componentType": 5126,
      "count": 3671,
      "max": [
        0.9995120167732239,
        0.8458250164985657
      ],
      "min": [
        0.0003819999983534217,
        0.0004879999905824661
      ],
      "type": "VEC2"
    },
    {
      "bufferView": 0,
      "componentType": 5125,
      "count": 15531,
      "type": "SCALAR"
    }
  ],
  "asset": {
    "extras": {
      "author": "chrismartin1337 (https://sketchfab.com/chrismartin1337)",
      "license": "CC-BY-4.0 (http://creativecommons.org/licenses/by/4.0/)",
      "source": "https://sketchfab.com/3d-models/ice-cluster-4-free-5f4edcd6f22242c197bb58405c6063ac",
      "title": "Ice Cluster 4 (Free)"
    },
    "generator": "Sketchfab-16.64.0",
    "version": "2.0"
  },
  "bufferViews": [
    {
      "buffer": 0,
      "byteLength": 62124,
      "name": "floatBufferViews",
      "target": 34963
    },
    {
      "buffer": 0,
      "byteLength": 29368,
      "byteOffset": 62124,
      "byteStride": 8,
      "name": "floatBufferViews",
      "target": 34962
    },
    {
      "buffer": 0,
      "byteLength": 88104,
      "byteOffset": 91492,
      "byteStride": 12,
      "name": "floatBufferViews",
      "target": 34962
    }
  ],
  "buffers": [
    {
      "byteLength": 179596,
      "uri": "scene.bin"
    }
  ],
  "extensionsRequired": [
    "KHR_materials_pbrSpecularGlossiness"
  ],
  "extensionsUsed": [
    "KHR_materials_pbrSpecularGlossiness"
  ],
  "images": [
    {
      "uri": "textures/Material.003_diffuse.png"
    },
    {
      "uri": "textures/Material.003_specularGlossiness.png"
    }
  ],
  "materials": [
    {
      "doubleSided": true,
      "extensions": {
        "KHR_materials_pbrSpecularGlossiness": {
          "diffuseFactor": [
            1.0,
            1.0,
            1.0,
            1.0
          ],
          "diffuseTexture": {
            "index": 0
          },
          "glossinessFactor": 1.0,
          "specularFactor": [
            0.0618910228981503,
            0.0618910228981503,
            0.0618910228981503
          ],
          "specularGlossinessTexture": {
            "index": 1
          }
        }
      },
      "name": "Material.003"
    }
  ],
  "meshes": [
    {
      "name": "Object_0",
      "primitives": [
        {
          "attributes": {
            "NORMAL": 1,
            "POSITION": 0,
            "TEXCOORD_0": 2
          },
          "indices": 3,
          "material": 0,
          "mode": 4
        }
      ]
    }
  ],
  "nodes": [
    {
      "children": [
        1
      ],
      "matrix": [
        1.0,
        0.0,
        0.0,
        0.0,
        0.0,
        2.220446049250313e-16,
        -1.0,
        0.0,
        0.0,
        1.0,
        2.220446049250313e-16,
        0.0,
        0.0,
        0.0,
        0.0,
        1.0
      ],
      "name": "Sketchfab_model"
    },
    {
      "children": [
        2
      ],
      "name": "987fea8f438d44a88263fb9ea924b8de.obj.cleaner.materialmerger.gles"
    },
    {
      "mesh": 0,
      "name": "Object_2"
    }
  ],
  "samplers": [
    {
      "magFilter": 9729,
      "minFilter": 9987,
      "wrapS": 10497,
      "wrapT": 10497
    }
  ],
  "scene": 0,
  "scenes": [
    {
      "name": "Sketchfab_Scene",
      "nodes": [
        0
      ]
    }
  ],
  "textures": [
    {
      "sampler": 0,
      "source": 0
    },
    {
      "sampler": 0,
      "source": 1
    }
  ]
}
